<mxfile host="Electron" modified="2024-06-11T12:08:29.438Z" agent="Mozilla/5.0 (Windows NT 10.0; Win64; x64) AppleWebKit/537.36 (KHTML, like Gecko) draw.io/24.1.0 Chrome/120.0.6099.109 Electron/28.1.0 Safari/537.36" etag="3gsH6clb1LZhZttoLy_F" version="24.1.0" type="device">
  <diagram name="Страница — 1" id="XDdJCOj5BgrIff6nonp3">
    <mxGraphModel dx="702" dy="1525" grid="1" gridSize="10" guides="1" tooltips="1" connect="1" arrows="1" fold="1" page="1" pageScale="1" pageWidth="250" pageHeight="200" math="0" shadow="0">
      <root>
        <mxCell id="0" />
        <mxCell id="1" parent="0" />
        <mxCell id="g8bM__knOoeqCtRkvEfe-1" value="СТРАНИЦА ГЛАВНЯ&lt;div&gt;поиск&lt;/div&gt;&lt;div&gt;меню&lt;/div&gt;&lt;div&gt;кнопка показа меню в разных стилях&lt;/div&gt;&lt;div&gt;фильтрация&lt;/div&gt;&lt;div&gt;items с кнопкой добавления/удаления в корзину&lt;/div&gt;&lt;div&gt;кнопка корзины&lt;/div&gt;&lt;div&gt;кнопка заказов&lt;/div&gt;&lt;div&gt;связь с админом&lt;/div&gt;&lt;div&gt;кнопка войти&lt;/div&gt;" style="rounded=0;whiteSpace=wrap;html=1;" parent="1" vertex="1">
          <mxGeometry x="10" y="-600" width="970" height="240" as="geometry" />
        </mxCell>
        <mxCell id="g8bM__knOoeqCtRkvEfe-2" value="ПОИСК" style="rounded=0;whiteSpace=wrap;html=1;" parent="1" vertex="1">
          <mxGeometry x="10" y="-320" width="120" height="60" as="geometry" />
        </mxCell>
        <mxCell id="g8bM__knOoeqCtRkvEfe-4" value="ввод поиск слова -&amp;gt;&lt;br&gt;&lt;div&gt;динамически выдача предлагаемых названий списком под строкой поиска&lt;/div&gt;" style="rounded=0;whiteSpace=wrap;html=1;" parent="1" vertex="1">
          <mxGeometry x="-90" y="-180" width="120" height="120" as="geometry" />
        </mxCell>
        <mxCell id="g8bM__knOoeqCtRkvEfe-5" value="" style="endArrow=classic;html=1;rounded=0;exitX=0.5;exitY=1;exitDx=0;exitDy=0;entryX=0.5;entryY=0;entryDx=0;entryDy=0;" parent="1" source="g8bM__knOoeqCtRkvEfe-2" target="g8bM__knOoeqCtRkvEfe-4" edge="1">
          <mxGeometry width="50" height="50" relative="1" as="geometry">
            <mxPoint x="240" y="-170" as="sourcePoint" />
            <mxPoint x="290" y="-220" as="targetPoint" />
          </mxGeometry>
        </mxCell>
        <mxCell id="g8bM__knOoeqCtRkvEfe-6" value="если нажмем enter-&amp;gt;&lt;br&gt;&lt;div&gt;выдача предлагаемых шаверм в зависимости от режима показа&lt;/div&gt;" style="rounded=0;whiteSpace=wrap;html=1;" parent="1" vertex="1">
          <mxGeometry x="100" y="-180" width="120" height="120" as="geometry" />
        </mxCell>
        <mxCell id="g8bM__knOoeqCtRkvEfe-7" value="" style="endArrow=classic;html=1;rounded=0;exitX=0.5;exitY=1;exitDx=0;exitDy=0;entryX=0.578;entryY=-0.011;entryDx=0;entryDy=0;entryPerimeter=0;" parent="1" source="g8bM__knOoeqCtRkvEfe-2" target="g8bM__knOoeqCtRkvEfe-6" edge="1">
          <mxGeometry width="50" height="50" relative="1" as="geometry">
            <mxPoint x="410" y="-180" as="sourcePoint" />
            <mxPoint x="460" y="-230" as="targetPoint" />
          </mxGeometry>
        </mxCell>
        <mxCell id="g8bM__knOoeqCtRkvEfe-9" value="КНОПКА ПОКАЗКА В РАЗНЫХ СТИЛЯХ" style="rounded=0;whiteSpace=wrap;html=1;" parent="1" vertex="1">
          <mxGeometry x="290" y="-320" width="120" height="60" as="geometry" />
        </mxCell>
        <mxCell id="g8bM__knOoeqCtRkvEfe-10" value="только название&lt;div&gt;только название + картинка&lt;/div&gt;&lt;div&gt;картинка название состав цена&lt;/div&gt;" style="rounded=0;whiteSpace=wrap;html=1;dashed=1;" parent="1" vertex="1">
          <mxGeometry x="290" y="-260" width="120" height="90" as="geometry" />
        </mxCell>
        <mxCell id="g8bM__knOoeqCtRkvEfe-12" value="фильтрация" style="rounded=0;whiteSpace=wrap;html=1;" parent="1" vertex="1">
          <mxGeometry x="500" y="-330" width="120" height="60" as="geometry" />
        </mxCell>
        <mxCell id="g8bM__knOoeqCtRkvEfe-13" value="&lt;div&gt;кнопка сортировка&lt;/div&gt;по цене&lt;div&gt;по алфавиту&lt;/div&gt;&lt;div&gt;&lt;br&gt;&lt;/div&gt;" style="whiteSpace=wrap;html=1;aspect=fixed;dashed=1;" parent="1" vertex="1">
          <mxGeometry x="500" y="-270" width="120" height="120" as="geometry" />
        </mxCell>
        <mxCell id="g8bM__knOoeqCtRkvEfe-14" value="&lt;div&gt;&lt;font style=&quot;font-size: 10px;&quot;&gt;&lt;br&gt;&lt;/font&gt;&lt;/div&gt;&lt;div&gt;&lt;font style=&quot;font-size: 10px;&quot;&gt;фильтрация по составу&lt;/font&gt;&lt;br&gt;без мяса&lt;/div&gt;&lt;div&gt;без соуса&lt;/div&gt;&lt;div&gt;без&amp;nbsp; лука&lt;/div&gt;&lt;div&gt;+&lt;/div&gt;&lt;div&gt;список всех ингредиентов...&lt;/div&gt;" style="rounded=0;whiteSpace=wrap;html=1;dashed=1;" parent="1" vertex="1">
          <mxGeometry x="500" y="-150" width="120" height="140" as="geometry" />
        </mxCell>
        <mxCell id="g8bM__knOoeqCtRkvEfe-18" value="query(searchWord,&quot;&quot;, &quot;&quot;, &quot;&quot;) {&lt;div&gt;product(&lt;span style=&quot;background-color: initial;&quot;&gt;searchWord&lt;/span&gt;&lt;span style=&quot;background-color: initial;&quot;&gt;) {&lt;/span&gt;&lt;/div&gt;&lt;div&gt;id&lt;/div&gt;&lt;div&gt;name&lt;/div&gt;&lt;div&gt;}&lt;/div&gt;" style="rounded=0;whiteSpace=wrap;html=1;fillColor=#fff2cc;strokeColor=#d6b656;" parent="1" vertex="1">
          <mxGeometry x="-130" y="-50" width="180" height="140" as="geometry" />
        </mxCell>
        <mxCell id="g8bM__knOoeqCtRkvEfe-19" value="query(searchWord, ) {&lt;div&gt;products(&lt;span style=&quot;background-color: initial;&quot;&gt;searchWord&lt;/span&gt;&lt;span style=&quot;background-color: initial;&quot;&gt;) {&lt;/span&gt;&lt;/div&gt;&lt;div&gt;id&amp;nbsp; +&lt;/div&gt;&lt;div&gt;&lt;span style=&quot;background-color: initial;&quot;&gt;schemaOfShowing&lt;/span&gt;&lt;/div&gt;&lt;div&gt;&lt;span style=&quot;background-color: initial;&quot;&gt;}&lt;/span&gt;&lt;/div&gt;" style="rounded=0;whiteSpace=wrap;html=1;fillColor=#fff2cc;strokeColor=#d6b656;" parent="1" vertex="1">
          <mxGeometry x="80" y="-50" width="150" height="140" as="geometry" />
        </mxCell>
        <mxCell id="g8bM__knOoeqCtRkvEfe-20" value="changeSchemaOfShowing" style="rounded=0;whiteSpace=wrap;html=1;fillColor=#dae8fc;strokeColor=#6c8ebf;" parent="1" vertex="1">
          <mxGeometry x="270" y="-160" width="160" height="50" as="geometry" />
        </mxCell>
        <mxCell id="g8bM__knOoeqCtRkvEfe-24" value="query(&quot;&quot;, &quot;&quot;, &quot;&quot;, &quot;&quot;)&lt;div&gt;products(&lt;/div&gt;&lt;div&gt;schemaOfShowing&lt;br&gt;&lt;/div&gt;&lt;div&gt;)&lt;/div&gt;" style="rounded=0;whiteSpace=wrap;html=1;fillColor=#fff2cc;strokeColor=#d6b656;" parent="1" vertex="1">
          <mxGeometry y="-710" width="980" height="100" as="geometry" />
        </mxCell>
        <mxCell id="g8bM__knOoeqCtRkvEfe-25" value="query(searchWord,&amp;nbsp;&lt;div&gt;order&lt;/div&gt;&lt;div&gt;filteGroup,&amp;nbsp;&lt;/div&gt;&lt;div&gt;filterRecipe) {&lt;div&gt;products(&lt;span style=&quot;background-color: initial;&quot;&gt;searchWord, filter&lt;/span&gt;&lt;span style=&quot;background-color: initial;&quot;&gt;) {&lt;/span&gt;&lt;/div&gt;&lt;div&gt;id&amp;nbsp; +&lt;/div&gt;&lt;div&gt;&lt;span style=&quot;background-color: initial;&quot;&gt;schemaOfShowing&lt;/span&gt;&lt;/div&gt;&lt;div&gt;&lt;span style=&quot;background-color: initial;&quot;&gt;}&lt;/span&gt;&lt;/div&gt;&lt;/div&gt;" style="rounded=0;whiteSpace=wrap;html=1;fillColor=#fff2cc;strokeColor=#d6b656;" parent="1" vertex="1">
          <mxGeometry x="650" y="-260" width="150" height="140" as="geometry" />
        </mxCell>
        <mxCell id="88PQ1Pr71RL_Fwc9Hjwj-1" value="КОРЗИНА" style="rounded=0;whiteSpace=wrap;html=1;" parent="1" vertex="1">
          <mxGeometry x="-105" y="345" width="250" height="60" as="geometry" />
        </mxCell>
        <mxCell id="88PQ1Pr71RL_Fwc9Hjwj-5" value="save/delete&lt;span style=&quot;background-color: initial;&quot;&gt;&amp;nbsp;to browser local storage (item)&lt;/span&gt;" style="rounded=0;whiteSpace=wrap;html=1;fillColor=#dae8fc;strokeColor=#6c8ebf;" parent="1" vertex="1">
          <mxGeometry x="-105" y="405" width="250" height="60" as="geometry" />
        </mxCell>
        <mxCell id="88PQ1Pr71RL_Fwc9Hjwj-8" value="КНОПКА ЗАКАЗАТЬ" style="rounded=0;whiteSpace=wrap;html=1;" parent="1" vertex="1">
          <mxGeometry x="185" y="240" width="250" height="60" as="geometry" />
        </mxCell>
        <mxCell id="88PQ1Pr71RL_Fwc9Hjwj-9" value="&lt;span style=&quot;white-space: pre;&quot;&gt;&#x9;&lt;/span&gt;GET /payment(jwtToken. items_id, prices, comment. address) return payment" style="rounded=0;whiteSpace=wrap;html=1;fillColor=#fff2cc;strokeColor=#d6b656;" parent="1" vertex="1">
          <mxGeometry x="185" y="300" width="250" height="60" as="geometry" />
        </mxCell>
        <mxCell id="88PQ1Pr71RL_Fwc9Hjwj-13" value="" style="shape=flexArrow;endArrow=classic;html=1;rounded=0;" parent="1" target="88PQ1Pr71RL_Fwc9Hjwj-14" edge="1">
          <mxGeometry width="50" height="50" relative="1" as="geometry">
            <mxPoint x="295" y="370" as="sourcePoint" />
            <mxPoint x="295" y="450" as="targetPoint" />
          </mxGeometry>
        </mxCell>
        <mxCell id="88PQ1Pr71RL_Fwc9Hjwj-14" value="если не зареган то редиректит на регистрацию, потом обратно на корзину подгружая айтемы из локального хранилища в браузере" style="rounded=0;whiteSpace=wrap;html=1;" parent="1" vertex="1">
          <mxGeometry x="195" y="460" width="225" height="60" as="geometry" />
        </mxCell>
        <mxCell id="88PQ1Pr71RL_Fwc9Hjwj-15" value="КОРЗИНА&lt;div&gt;&lt;div&gt;items с кнопкой добавления/удаления в корзину&lt;/div&gt;&lt;/div&gt;&lt;div&gt;&lt;span style=&quot;background-color: initial;&quot;&gt;поле для добавления&lt;/span&gt;&lt;span style=&quot;background-color: initial;&quot;&gt;&amp;nbsp;&lt;/span&gt;комментарий&lt;/div&gt;&lt;div&gt;поле для добавления адрес&lt;/div&gt;&lt;div&gt;кнопка заказать&lt;/div&gt;&lt;div&gt;&lt;br&gt;&lt;/div&gt;" style="rounded=0;whiteSpace=wrap;html=1;" parent="1" vertex="1">
          <mxGeometry x="-65" y="150" width="180" height="180" as="geometry" />
        </mxCell>
        <mxCell id="88PQ1Pr71RL_Fwc9Hjwj-16" value="&lt;div&gt;ОПЛАТА&lt;/div&gt;&lt;div&gt;Все поля КОРЗИНЫ&lt;/div&gt;&lt;div&gt;выбор формы оплаты&lt;/div&gt;&lt;div&gt;(если безнал ввод карты)&lt;/div&gt;&lt;div&gt;сумма к оплате&lt;/div&gt;&lt;div&gt;кнопка оплать&lt;/div&gt;&lt;div&gt;&lt;br&gt;&lt;/div&gt;" style="rounded=0;whiteSpace=wrap;html=1;" parent="1" vertex="1">
          <mxGeometry x="515" y="250" width="180" height="180" as="geometry" />
        </mxCell>
        <mxCell id="88PQ1Pr71RL_Fwc9Hjwj-17" value="order" style="endArrow=classic;html=1;rounded=0;exitX=1;exitY=0.5;exitDx=0;exitDy=0;" parent="1" source="88PQ1Pr71RL_Fwc9Hjwj-9" target="88PQ1Pr71RL_Fwc9Hjwj-16" edge="1">
          <mxGeometry width="50" height="50" relative="1" as="geometry">
            <mxPoint x="395" y="420" as="sourcePoint" />
            <mxPoint x="445" y="370" as="targetPoint" />
          </mxGeometry>
        </mxCell>
        <mxCell id="88PQ1Pr71RL_Fwc9Hjwj-22" value="POST payment/order_id + payload(card) paymentType return&lt;span style=&quot;color: rgba(0, 0, 0, 0); font-family: monospace; font-size: 0px; text-align: start; text-wrap: nowrap;&quot;&gt;%3CmxGraphModel%3E%3Croot%3E%3CmxCell%20id%3D%220%22%2F%3E%3CmxCell%20id%3D%221%22%20parent%3D%220%22%2F%3E%3CmxCell%20id%3D%222%22%20value%3D%22%D0%97%D0%90%D0%9A%D0%90%D0%97%D0%90%26lt%3Bdiv%26gt%3B%26lt%3Bdiv%26gt%3Bitems%26lt%3B%2Fdiv%26gt%3B%26lt%3Bdiv%26gt%3B%D0%BA%D0%BE%D0%BC%D0%BC%D0%B5%D0%BD%D1%82%D0%B0%D1%80%D0%B8%D0%B9%26lt%3B%2Fdiv%26gt%3B%26lt%3Bdiv%26gt%3B%26lt%3Bspan%20style%3D%26quot%3Bbackground-color%3A%20initial%3B%26quot%3B%26gt%3B%D0%B0%D0%B4%D1%80%D0%B5%D1%81%D1%81%26lt%3B%2Fspan%26gt%3B%26lt%3B%2Fdiv%26gt%3B%26lt%3B%2Fdiv%26gt%3B%26lt%3Bdiv%26gt%3B%26lt%3Bspan%20style%3D%26quot%3Bbackground-color%3A%20initial%3B%26quot%3B%26gt%3B%D0%BA%D0%BD%D0%BE%D0%BF%D0%BA%D0%B0%20%D0%B4%D0%BB%D1%8F%20%D1%81%D0%B2%D1%8F%D0%B7%D0%B8%20%D1%81%20%D0%BA%D1%83%D1%80%D1%8C%D0%B5%D1%80%D0%BE%D0%BC%26lt%3B%2Fspan%26gt%3B%26lt%3B%2Fdiv%26gt%3B%26lt%3Bdiv%26gt%3B%26lt%3Bspan%20style%3D%26quot%3Bbackground-color%3A%20initial%3B%26quot%3B%26gt%3B%D1%81%D1%82%D0%B0%D1%82%D1%83%D1%81%20%D0%B7%D0%B0%D0%BA%D0%B0%D0%B7%D0%B0%26lt%3B%2Fspan%26gt%3B%26lt%3B%2Fdiv%26gt%3B%26lt%3Bdiv%26gt%3B%D0%BE%D1%82%D0%BC%D0%B5%D0%BD%D0%B8%D1%82%D1%8C%20%D0%B7%D0%B0%D0%BA%D0%B0%D0%B7%26lt%3B%2Fdiv%26gt%3B%26lt%3Bdiv%26gt%3B%D0%BA%D0%BD%D0%BE%D0%BF%D0%BA%D0%B0%20%D0%BC%D0%B5%D0%BD%D1%8E%26lt%3B%2Fdiv%26gt%3B%22%20style%3D%22rounded%3D0%3BwhiteSpace%3Dwrap%3Bhtml%3D1%3B%22%20vertex%3D%221%22%20parent%3D%221%22%3E%3CmxGeometry%20x%3D%22850%22%20y%3D%22-190%22%20width%3D%22180%22%20height%3D%22180%22%20as%3D%22geometry%22%2F%3E%3C%2FmxCell%3E%3C%2Froot%3E%3C%2FmxGraphModel%3E&lt;/span&gt;&amp;nbsp;Ok(order)" style="rounded=0;whiteSpace=wrap;html=1;fillColor=#fff2cc;strokeColor=#d6b656;" parent="1" vertex="1">
          <mxGeometry x="515" y="430" width="180" height="60" as="geometry" />
        </mxCell>
        <mxCell id="88PQ1Pr71RL_Fwc9Hjwj-23" value="ЗАКАЗА&lt;div&gt;&lt;div&gt;items&lt;/div&gt;&lt;div&gt;комментарий&lt;/div&gt;&lt;div&gt;&lt;span style=&quot;background-color: initial;&quot;&gt;адресс&lt;/span&gt;&lt;/div&gt;&lt;/div&gt;&lt;div&gt;&lt;span style=&quot;background-color: initial;&quot;&gt;кнопка для связи с курьером&lt;/span&gt;&lt;/div&gt;&lt;div&gt;&lt;span style=&quot;background-color: initial;&quot;&gt;статус заказа&lt;/span&gt;&lt;/div&gt;&lt;div&gt;отменить заказ&lt;/div&gt;&lt;div&gt;время доставки&lt;/div&gt;&lt;div&gt;кнопка меню&lt;/div&gt;" style="rounded=0;whiteSpace=wrap;html=1;" parent="1" vertex="1">
          <mxGeometry x="755" y="370" width="180" height="180" as="geometry" />
        </mxCell>
        <mxCell id="88PQ1Pr71RL_Fwc9Hjwj-24" value="POST payment + order_id, paymentType)&lt;div&gt;return&lt;span style=&quot;color: rgba(0, 0, 0, 0); font-family: monospace; font-size: 0px; text-align: start; text-wrap: nowrap;&quot;&gt;%3CmxGraphModel%3E%3Croot%3E%3CmxCell%20id%3D%220%22%2F%3E%3CmxCell%20id%3D%221%22%20parent%3D%220%22%2F%3E%3CmxCell%20id%3D%222%22%20value%3D%22%D0%97%D0%90%D0%9A%D0%90%D0%97%D0%90%26lt%3Bdiv%26gt%3B%26lt%3Bdiv%26gt%3Bitems%26lt%3B%2Fdiv%26gt%3B%26lt%3Bdiv%26gt%3B%D0%BA%D0%BE%D0%BC%D0%BC%D0%B5%D0%BD%D1%82%D0%B0%D1%80%D0%B8%D0%B9%26lt%3B%2Fdiv%26gt%3B%26lt%3Bdiv%26gt%3B%26lt%3Bspan%20style%3D%26quot%3Bbackground-color%3A%20initial%3B%26quot%3B%26gt%3B%D0%B0%D0%B4%D1%80%D0%B5%D1%81%D1%81%26lt%3B%2Fspan%26gt%3B%26lt%3B%2Fdiv%26gt%3B%26lt%3B%2Fdiv%26gt%3B%26lt%3Bdiv%26gt%3B%26lt%3Bspan%20style%3D%26quot%3Bbackground-color%3A%20initial%3B%26quot%3B%26gt%3B%D0%BA%D0%BD%D0%BE%D0%BF%D0%BA%D0%B0%20%D0%B4%D0%BB%D1%8F%20%D1%81%D0%B2%D1%8F%D0%B7%D0%B8%20%D1%81%20%D0%BA%D1%83%D1%80%D1%8C%D0%B5%D1%80%D0%BE%D0%BC%26lt%3B%2Fspan%26gt%3B%26lt%3B%2Fdiv%26gt%3B%26lt%3Bdiv%26gt%3B%26lt%3Bspan%20style%3D%26quot%3Bbackground-color%3A%20initial%3B%26quot%3B%26gt%3B%D1%81%D1%82%D0%B0%D1%82%D1%83%D1%81%20%D0%B7%D0%B0%D0%BA%D0%B0%D0%B7%D0%B0%26lt%3B%2Fspan%26gt%3B%26lt%3B%2Fdiv%26gt%3B%26lt%3Bdiv%26gt%3B%D0%BE%D1%82%D0%BC%D0%B5%D0%BD%D0%B8%D1%82%D1%8C%20%D0%B7%D0%B0%D0%BA%D0%B0%D0%B7%26lt%3B%2Fdiv%26gt%3B%26lt%3Bdiv%26gt%3B%D0%BA%D0%BD%D0%BE%D0%BF%D0%BA%D0%B0%20%D0%BC%D0%B5%D0%BD%D1%8E%26lt%3B%2Fdiv%26gt%3B%22%20style%3D%22rounded%3D0%3BwhiteSpace%3Dwrap%3Bhtml%3D1%3B%22%20vertex%3D%221%22%20parent%3D%221%22%3E%3CmxGeometry%20x%3D%22850%22%20y%3D%22-190%22%20width%3D%22180%22%20height%3D%22180%22%20as%3D%22geometry%22%2F%3E%3C%2FmxCell%3E%3C%2Froot%3E%3C%2FmxGraphModel%3E&lt;/span&gt;&amp;nbsp;BadRequest(payment, error)&lt;/div&gt;" style="rounded=0;whiteSpace=wrap;html=1;fillColor=#fff2cc;strokeColor=#d6b656;" parent="1" vertex="1">
          <mxGeometry x="515" y="490" width="180" height="60" as="geometry" />
        </mxCell>
        <mxCell id="88PQ1Pr71RL_Fwc9Hjwj-25" value="" style="endArrow=classic;html=1;rounded=0;entryX=0;entryY=0.5;entryDx=0;entryDy=0;exitX=1;exitY=0.5;exitDx=0;exitDy=0;" parent="1" source="88PQ1Pr71RL_Fwc9Hjwj-22" target="88PQ1Pr71RL_Fwc9Hjwj-23" edge="1">
          <mxGeometry width="50" height="50" relative="1" as="geometry">
            <mxPoint x="535" y="550" as="sourcePoint" />
            <mxPoint x="585" y="500" as="targetPoint" />
          </mxGeometry>
        </mxCell>
        <mxCell id="88PQ1Pr71RL_Fwc9Hjwj-28" value="PUT orders/order_id?status return Ok()" style="rounded=0;whiteSpace=wrap;html=1;fillColor=#fff2cc;strokeColor=#d6b656;" parent="1" vertex="1">
          <mxGeometry x="755" y="550" width="180" height="60" as="geometry" />
        </mxCell>
        <mxCell id="88PQ1Pr71RL_Fwc9Hjwj-29" value="GET /orders/id/courierchat&lt;div&gt;&lt;span style=&quot;background-color: initial;&quot;&gt;return Ok(corierchat)&lt;/span&gt;&lt;/div&gt;" style="rounded=0;whiteSpace=wrap;html=1;fillColor=#fff2cc;strokeColor=#d6b656;" parent="1" vertex="1">
          <mxGeometry x="755" y="610" width="180" height="60" as="geometry" />
        </mxCell>
        <mxCell id="88PQ1Pr71RL_Fwc9Hjwj-31" value="отправить заглушку, пока не делаем" style="rounded=0;whiteSpace=wrap;html=1;fillColor=#f8cecc;strokeColor=#b85450;dashed=1;" parent="1" vertex="1">
          <mxGeometry x="765" y="660" width="160" height="30" as="geometry" />
        </mxCell>
        <mxCell id="88PQ1Pr71RL_Fwc9Hjwj-33" value="КНОПКА ЗАКАЗОВ" style="rounded=0;whiteSpace=wrap;html=1;" parent="1" vertex="1">
          <mxGeometry x="1035" y="240" width="190" height="60" as="geometry" />
        </mxCell>
        <mxCell id="88PQ1Pr71RL_Fwc9Hjwj-34" value="СПИСОК ТЕКУЩИХ ЗАКАЗОВ&lt;div&gt;КНОПКА ИСТОРИЯ ЗАКАЗОВ&lt;/div&gt;&lt;div&gt;КНОПКА ОТМЕННЕННЫЕ ЗАКАЗЫ&lt;br&gt;&lt;div&gt;&lt;div&gt;&lt;br&gt;&lt;/div&gt;&lt;/div&gt;&lt;/div&gt;" style="rounded=0;whiteSpace=wrap;html=1;" parent="1" vertex="1">
          <mxGeometry x="1045" y="360" width="180" height="180" as="geometry" />
        </mxCell>
        <mxCell id="88PQ1Pr71RL_Fwc9Hjwj-35" value="GET order?filter" style="rounded=0;whiteSpace=wrap;html=1;fillColor=#fff2cc;strokeColor=#d6b656;" parent="1" vertex="1">
          <mxGeometry x="1035" y="300" width="190" height="60" as="geometry" />
        </mxCell>
        <mxCell id="88PQ1Pr71RL_Fwc9Hjwj-37" value="КНОПКА СВЯЗЬ С АДМИНОМ" style="rounded=0;whiteSpace=wrap;html=1;" parent="1" vertex="1">
          <mxGeometry x="765" y="50" width="190" height="60" as="geometry" />
        </mxCell>
        <mxCell id="88PQ1Pr71RL_Fwc9Hjwj-38" value="GET chats/admin_chat_id" style="rounded=0;whiteSpace=wrap;html=1;fillColor=#fff2cc;strokeColor=#d6b656;" parent="1" vertex="1">
          <mxGeometry x="765" y="110" width="190" height="60" as="geometry" />
        </mxCell>
        <mxCell id="88PQ1Pr71RL_Fwc9Hjwj-39" value="отправить заглушку, пока не делаем" style="rounded=0;whiteSpace=wrap;html=1;fillColor=#f8cecc;strokeColor=#b85450;dashed=1;" parent="1" vertex="1">
          <mxGeometry x="780" y="170" width="160" height="30" as="geometry" />
        </mxCell>
        <mxCell id="88PQ1Pr71RL_Fwc9Hjwj-41" value="&lt;h1 style=&quot;margin-top: 0px;&quot;&gt;&lt;font style=&quot;font-size: 39px;&quot;&gt;Client&lt;/font&gt;&lt;/h1&gt;" style="text;html=1;whiteSpace=wrap;overflow=hidden;rounded=0;" parent="1" vertex="1">
          <mxGeometry x="-200" y="-730" width="180" height="120" as="geometry" />
        </mxCell>
      </root>
    </mxGraphModel>
  </diagram>
</mxfile>
